<svg width="20" height="20" viewBox="0 0 20 20" fill="none" xmlns="http://www.w3.org/2000/svg">
<path d="M12.9999 1C13.7955 1 14.5586 1.31607 15.1212 1.87868C15.6838 2.44129 15.9999 3.20435 15.9999 4C16.4932 3.99989 16.979 4.12146 17.4141 4.35392C17.8493 4.58638 18.2204 4.92256 18.4945 5.33269C18.7687 5.74282 18.9375 6.21424 18.986 6.70519C19.0345 7.19614 18.9612 7.69147 18.7725 8.14731C18.5838 8.60315 18.2856 9.00542 17.9044 9.3185C17.5231 9.63158 17.0705 9.8458 16.5867 9.94218C16.1028 10.0386 15.6027 10.0142 15.1306 9.87109C14.6584 9.72802 14.2289 9.47073 13.8799 9.122L9.1219 13.88C9.46529 14.2237 9.72008 14.6456 9.86435 15.1095C10.0086 15.5734 10.0381 16.0654 9.95018 16.5433C9.86228 17.0211 9.65965 17.4704 9.35971 17.8526C9.05977 18.2347 8.6715 18.5384 8.22828 18.7373C7.78506 18.9363 7.30015 19.0246 6.81524 18.9948C6.33033 18.9649 5.85993 18.8177 5.44448 18.5658C5.02903 18.314 4.68096 17.965 4.4302 17.5489C4.17944 17.1328 4.03349 16.662 4.0049 16.177V16H3.8289C3.34373 15.9716 2.87274 15.8257 2.45643 15.5749C2.04013 15.3242 1.69098 14.976 1.43903 14.5604C1.18707 14.1448 1.03986 13.6743 1.01005 13.1892C0.980232 12.7041 1.06871 12.219 1.26788 11.7757C1.46705 11.3324 1.77093 10.9441 2.15339 10.6442C2.53586 10.3444 2.98544 10.1419 3.46347 10.0543C3.94151 9.96668 4.43367 9.9965 4.89763 10.1412C5.36158 10.2859 5.78344 10.5412 6.1269 10.885L10.8849 6.127C10.4652 5.70756 10.1793 5.17307 10.0634 4.59114C9.94742 4.0092 10.0067 3.40595 10.2336 2.85769C10.4605 2.30943 10.8449 1.84077 11.3382 1.51099C11.8315 1.18121 12.4115 1.00513 13.0049 1.005L12.9999 1Z" stroke="white" stroke-width="2" stroke-linecap="round" stroke-linejoin="round"/>
</svg>
