<svg width="34" height="48" viewBox="0 0 34 48" fill="none" xmlns="http://www.w3.org/2000/svg">
<path d="M32.9598 4.91746C32.7807 4.57286 32.3559 4.43846 32.0117 4.61754C31.6671 4.79661 31.5327 5.22105 31.7118 5.56565C32.6291 7.33151 32.8217 9.36105 32.2541 11.28C32.0278 12.0468 30.0396 18.7807 29.9528 19.115C29.9356 19.1817 29.8759 19.2286 29.8082 19.2286H13.2152C12.8267 19.2286 12.5121 19.5431 12.5121 19.9317C12.5121 20.3199 12.8267 20.6348 13.2152 20.6348H27.6747L27.2839 22.7834C27.2707 22.8544 27.2092 22.9057 27.1371 22.9057H6.87762C6.80548 22.9057 6.74396 22.8544 6.73114 22.7834L6.34003 20.6348H10.1534C10.5415 20.6348 10.8565 20.3199 10.8565 19.9317C10.8565 19.5431 10.5415 19.2286 10.1534 19.2286H4.20649C4.13874 19.2286 4.07905 19.1821 4.06184 19.1154C4.06001 19.1081 4.05781 19.1008 4.05598 19.0934L1.76058 11.28C1.06588 8.93038 1.50826 6.45737 2.97456 4.49449C4.44086 2.53197 6.68683 1.40624 9.13677 1.40624C9.86589 1.40624 10.587 1.50805 11.2802 1.70873C15.0269 2.79381 18.9882 2.79381 22.7345 1.70873C23.4277 1.50805 24.1488 1.40624 24.8779 1.40624C26.7628 1.40624 28.5715 2.09032 29.9715 3.33251C30.2619 3.59032 30.7065 3.56395 30.9643 3.27355C31.2221 2.98278 31.1954 2.53856 30.905 2.28075C29.2475 0.810055 27.107 0 24.8779 0C24.0166 0 23.1637 0.120483 22.3434 0.357787C18.8527 1.36889 15.162 1.36889 11.6713 0.357787C10.851 0.120483 9.99809 0 9.13677 0C6.23895 0 3.5821 1.33154 1.84773 3.65294C0.113366 5.97434 -0.409948 8.89962 0.411827 11.6773L2.70393 19.4805C2.88594 20.1609 3.50227 20.6348 4.20649 20.6348H4.91071L5.3476 23.0349C5.482 23.7751 6.12579 24.3119 6.87762 24.3119H9.9417L10.4383 28.5892L9.9428 28.7218C9.4301 28.8591 9.00164 29.188 8.7365 29.6476C8.471 30.1072 8.40069 30.6426 8.53802 31.1549C8.77569 32.0415 9.58025 32.6274 10.4573 32.6274C10.6042 32.6274 10.7532 32.6099 10.9019 32.5758L11.1546 34.7514L10.4844 34.9313C9.42644 35.2147 8.79619 36.306 9.07964 37.3644C9.31731 38.2506 10.1219 38.8369 10.9989 38.8369C11.1689 38.8369 11.341 38.8149 11.5127 38.7688L11.6178 38.7406L11.8705 40.914L11.2967 41.0678C10.784 41.2052 10.3559 41.534 10.0904 41.9936C9.82524 42.4532 9.75493 42.9882 9.89226 43.5009C10.0292 44.0133 10.3581 44.4417 10.8177 44.7072C11.1238 44.8837 11.4633 44.9742 11.8075 44.9742C11.98 44.9742 12.154 44.9515 12.325 44.9057L12.3341 44.9031L12.5257 46.5515C12.6213 47.3773 13.3207 48.0002 14.1524 48.0002H19.8627C20.694 48.0002 21.3934 47.3773 21.4894 46.5515L21.9812 42.3184L22.7184 42.1207C23.776 41.8372 24.4062 40.7459 24.1228 39.688C23.9082 38.8874 23.2311 38.3326 22.4558 38.2323L22.7433 35.7596L23.5306 35.5487C24.5882 35.2656 25.2185 34.1739 24.935 33.116C24.7161 32.2986 24.0155 31.7372 23.2201 31.6544L23.5054 29.2012L24.0719 29.0496C25.1302 28.7658 25.7601 27.6744 25.4767 26.6165C25.2771 25.872 24.6776 25.3402 23.9712 25.1886L24.0734 24.3123H27.1371C27.8893 24.3123 28.5327 23.7751 28.6675 23.0353L29.1043 20.6348H29.8082C30.5168 20.6348 31.1361 20.1551 31.3141 19.4684C31.3759 19.2297 32.7166 14.6791 33.6029 11.6788C34.2738 9.40939 34.0456 7.00815 32.9598 4.91746ZM20.0923 46.3889C20.0787 46.5057 19.9799 46.5936 19.8627 46.5936H14.152C14.0348 46.5936 13.9359 46.5057 13.9224 46.3889L13.7071 44.5351L20.52 42.7095L20.0923 46.3889ZM22.7642 40.0516C22.8473 40.3607 22.6631 40.6793 22.354 40.7624L11.961 43.5471C11.8112 43.5874 11.6548 43.5665 11.5208 43.4892C11.3864 43.4116 11.2904 43.2867 11.2505 43.1369C11.2102 42.9871 11.2308 42.8308 11.3084 42.6967C11.386 42.5623 11.5109 42.4664 11.6607 42.4261L22.0537 39.6414C22.1039 39.6279 22.1541 39.6217 22.2039 39.6217C22.4598 39.6213 22.6949 39.7927 22.7642 40.0516ZM21.0129 38.4644L13.2434 40.5463L12.9911 38.3725L21.2817 36.1511L21.0129 38.4644ZM23.5768 33.4796C23.6595 33.7887 23.4753 34.1077 23.1663 34.1904L11.1487 37.4105C10.8396 37.4936 10.5207 37.3094 10.4379 37.0003C10.3551 36.6913 10.5394 36.3727 10.8484 36.2895L22.866 33.0695C22.9161 33.0559 22.9667 33.0497 23.0161 33.0497C23.2725 33.0497 23.5076 33.2207 23.5768 33.4796ZM24.1184 26.9801C24.2012 27.2892 24.017 27.6082 23.7079 27.6909L19.4115 28.8423C19.0365 28.9426 18.8139 29.3283 18.9146 29.7033C19.0149 30.0782 19.4002 30.3009 19.7755 30.2006L22.0438 29.5927L21.775 31.906L12.5275 34.3838L12.2752 32.2103L16.8154 30.9938C17.1908 30.8931 17.4131 30.5074 17.3128 30.1324C17.2124 29.7575 16.8268 29.5348 16.4514 29.6351L10.6071 31.2014C10.298 31.2842 9.97942 31.1 9.89629 30.7909C9.85637 30.6415 9.87688 30.4851 9.95451 30.3507C10.0318 30.2167 10.157 30.1204 10.3068 30.0804L23.4076 26.57C23.7167 26.4868 24.0356 26.6714 24.1184 26.9801ZM22.5371 25.3472L11.8116 28.2212L11.3575 24.3119H22.6576L22.5371 25.3472Z" fill="white"/>
</svg>
